<svg xmlns="http://www.w3.org/2000/svg" xmlns:xlink="http://www.w3.org/1999/xlink" zoomAndPan="magnify" viewBox="108 152 157 73" preserveAspectRatio="xMidYMid meet" version="1.0"><defs><g/><clipPath id="3148f12e99"><path d="M 0.0390625 2 L 4 2 L 4 7 L 0.0390625 7 Z M 0.0390625 2 " clip-rule="nonzero"/></clipPath><clipPath id="f06e31001f"><rect x="0" width="5" y="0" height="8"/></clipPath><clipPath id="9f95e3cc6f"><rect x="0" width="5" y="0" height="8"/></clipPath></defs><g fill="#ffffff" fill-opacity="1"><g transform="translate(119.838806, 214.79581)"><g><path d="M 4.53125 -14.5625 C 3.53125 -14.5625 2.773438 -14.304688 2.265625 -13.796875 C 1.765625 -13.285156 1.398438 -12.414062 1.171875 -11.1875 C 1.171875 -11.15625 1.125 -11.140625 1.03125 -11.140625 C 0.945312 -11.140625 0.90625 -11.15625 0.90625 -11.1875 C 0.976562 -11.757812 1.050781 -12.507812 1.125 -13.4375 C 1.207031 -14.363281 1.25 -15.0625 1.25 -15.53125 C 1.25 -15.601562 1.289062 -15.640625 1.375 -15.640625 C 1.46875 -15.640625 1.515625 -15.601562 1.515625 -15.53125 C 1.515625 -15.175781 1.945312 -15 2.8125 -15 C 4.164062 -14.945312 5.769531 -14.921875 7.625 -14.921875 C 8.570312 -14.921875 9.570312 -14.9375 10.625 -14.96875 L 12.265625 -15 C 12.835938 -15 13.265625 -15.035156 13.546875 -15.109375 C 13.828125 -15.191406 14.007812 -15.351562 14.09375 -15.59375 C 14.101562 -15.664062 14.148438 -15.703125 14.234375 -15.703125 C 14.316406 -15.703125 14.359375 -15.664062 14.359375 -15.59375 C 14.304688 -15.132812 14.253906 -14.429688 14.203125 -13.484375 C 14.160156 -12.546875 14.140625 -11.78125 14.140625 -11.1875 C 14.140625 -11.15625 14.085938 -11.140625 13.984375 -11.140625 C 13.890625 -11.140625 13.84375 -11.15625 13.84375 -11.1875 C 13.800781 -12.4375 13.546875 -13.3125 13.078125 -13.8125 C 12.617188 -14.3125 11.851562 -14.5625 10.78125 -14.5625 C 10.0625 -14.5625 9.546875 -14.53125 9.234375 -14.46875 C 8.929688 -14.40625 8.722656 -14.269531 8.609375 -14.0625 C 8.503906 -13.851562 8.453125 -13.503906 8.453125 -13.015625 L 8.453125 -1.9375 C 8.453125 -1.445312 8.503906 -1.085938 8.609375 -0.859375 C 8.722656 -0.640625 8.941406 -0.488281 9.265625 -0.40625 C 9.585938 -0.320312 10.09375 -0.28125 10.78125 -0.28125 C 10.820312 -0.28125 10.84375 -0.234375 10.84375 -0.140625 C 10.84375 -0.046875 10.820312 0 10.78125 0 C 10.25 0 9.820312 -0.0078125 9.5 -0.03125 L 7.625 -0.046875 L 5.828125 -0.03125 C 5.515625 -0.0078125 5.078125 0 4.515625 0 C 4.484375 0 4.46875 -0.046875 4.46875 -0.140625 C 4.46875 -0.234375 4.484375 -0.28125 4.515625 -0.28125 C 5.203125 -0.28125 5.703125 -0.320312 6.015625 -0.40625 C 6.335938 -0.488281 6.554688 -0.644531 6.671875 -0.875 C 6.796875 -1.101562 6.859375 -1.457031 6.859375 -1.9375 L 6.859375 -13.0625 C 6.859375 -13.550781 6.800781 -13.894531 6.6875 -14.09375 C 6.582031 -14.300781 6.375 -14.429688 6.0625 -14.484375 C 5.757812 -14.535156 5.25 -14.5625 4.53125 -14.5625 Z M 4.53125 -14.5625 "/></g></g></g><g fill="#ffffff" fill-opacity="1"><g transform="translate(135.047351, 214.79581)"><g/></g></g><g fill="#ffffff" fill-opacity="1"><g transform="translate(140.660598, 214.79581)"><g><path d="M 16.390625 -0.28125 C 16.421875 -0.28125 16.4375 -0.234375 16.4375 -0.140625 C 16.4375 -0.046875 16.421875 0 16.390625 0 L 13.296875 0 C 12.898438 0 12.148438 -0.660156 11.046875 -1.984375 C 9.941406 -3.316406 8.628906 -5.144531 7.109375 -7.46875 C 6.671875 -7.363281 6.222656 -7.3125 5.765625 -7.3125 C 5.660156 -7.3125 5.300781 -7.335938 4.6875 -7.390625 L 4.6875 -1.9375 C 4.6875 -1.445312 4.734375 -1.085938 4.828125 -0.859375 C 4.921875 -0.640625 5.109375 -0.488281 5.390625 -0.40625 C 5.671875 -0.320312 6.113281 -0.28125 6.71875 -0.28125 C 6.769531 -0.28125 6.796875 -0.234375 6.796875 -0.140625 C 6.796875 -0.046875 6.769531 0 6.71875 0 C 6.21875 0 5.828125 -0.0078125 5.546875 -0.03125 L 3.890625 -0.046875 L 2.25 -0.03125 C 1.96875 -0.0078125 1.5625 0 1.03125 0 C 1 0 0.984375 -0.046875 0.984375 -0.140625 C 0.984375 -0.234375 1 -0.28125 1.03125 -0.28125 C 1.632812 -0.28125 2.082031 -0.320312 2.375 -0.40625 C 2.664062 -0.488281 2.863281 -0.644531 2.96875 -0.875 C 3.070312 -1.101562 3.125 -1.457031 3.125 -1.9375 L 3.125 -13.0625 C 3.125 -13.539062 3.070312 -13.890625 2.96875 -14.109375 C 2.875 -14.335938 2.6875 -14.492188 2.40625 -14.578125 C 2.125 -14.671875 1.679688 -14.71875 1.078125 -14.71875 C 1.035156 -14.71875 1.015625 -14.765625 1.015625 -14.859375 C 1.015625 -14.953125 1.035156 -15 1.078125 -15 L 2.25 -14.96875 C 2.925781 -14.9375 3.472656 -14.921875 3.890625 -14.921875 C 4.242188 -14.921875 4.570312 -14.925781 4.875 -14.9375 C 5.175781 -14.957031 5.429688 -14.976562 5.640625 -15 C 6.234375 -15.050781 6.769531 -15.078125 7.25 -15.078125 C 8.507812 -15.078125 9.484375 -14.785156 10.171875 -14.203125 C 10.859375 -13.628906 11.203125 -12.863281 11.203125 -11.90625 C 11.203125 -11.039062 10.953125 -10.257812 10.453125 -9.5625 C 9.953125 -8.863281 9.285156 -8.316406 8.453125 -7.921875 C 9.796875 -5.984375 10.925781 -4.46875 11.84375 -3.375 C 12.757812 -2.28125 13.570312 -1.488281 14.28125 -1 C 15 -0.519531 15.703125 -0.28125 16.390625 -0.28125 Z M 4.6875 -7.96875 C 5.082031 -7.90625 5.550781 -7.875 6.09375 -7.875 C 7.34375 -7.875 8.234375 -8.144531 8.765625 -8.6875 C 9.304688 -9.226562 9.578125 -10.066406 9.578125 -11.203125 C 9.578125 -12.453125 9.300781 -13.347656 8.75 -13.890625 C 8.195312 -14.441406 7.394531 -14.71875 6.34375 -14.71875 C 5.71875 -14.71875 5.285156 -14.601562 5.046875 -14.375 C 4.804688 -14.15625 4.6875 -13.703125 4.6875 -13.015625 Z M 4.6875 -7.96875 "/></g></g></g><g fill="#ffffff" fill-opacity="1"><g transform="translate(156.804686, 214.79581)"><g/></g></g><g fill="#ffffff" fill-opacity="1"><g transform="translate(162.417932, 214.79581)"><g><path d="M 16.78125 -0.28125 C 16.84375 -0.28125 16.875 -0.234375 16.875 -0.140625 C 16.875 -0.046875 16.84375 0 16.78125 0 C 16.46875 0 15.992188 -0.015625 15.359375 -0.046875 C 14.722656 -0.078125 14.257812 -0.09375 13.96875 -0.09375 C 13.613281 -0.09375 13.164062 -0.078125 12.625 -0.046875 C 12.113281 -0.015625 11.722656 0 11.453125 0 C 11.390625 0 11.359375 -0.046875 11.359375 -0.140625 C 11.359375 -0.234375 11.390625 -0.28125 11.453125 -0.28125 C 12.046875 -0.28125 12.476562 -0.335938 12.75 -0.453125 C 13.019531 -0.566406 13.15625 -0.757812 13.15625 -1.03125 C 13.15625 -1.257812 13.050781 -1.601562 12.84375 -2.0625 L 10.703125 -6.59375 L 4.984375 -6.59375 L 3.484375 -3.046875 C 3.253906 -2.503906 3.140625 -2.066406 3.140625 -1.734375 C 3.140625 -1.234375 3.332031 -0.863281 3.71875 -0.625 C 4.113281 -0.394531 4.707031 -0.28125 5.5 -0.28125 C 5.570312 -0.28125 5.609375 -0.234375 5.609375 -0.140625 C 5.609375 -0.046875 5.570312 0 5.5 0 C 5.207031 0 4.789062 -0.015625 4.25 -0.046875 C 3.644531 -0.078125 3.113281 -0.09375 2.65625 -0.09375 C 2.25 -0.09375 1.769531 -0.078125 1.21875 -0.046875 C 0.738281 -0.015625 0.34375 0 0.03125 0 C -0.0507812 0 -0.09375 -0.046875 -0.09375 -0.140625 C -0.09375 -0.234375 -0.0507812 -0.28125 0.03125 -0.28125 C 0.476562 -0.28125 0.851562 -0.363281 1.15625 -0.53125 C 1.46875 -0.707031 1.765625 -1.003906 2.046875 -1.421875 C 2.328125 -1.847656 2.632812 -2.460938 2.96875 -3.265625 L 8.046875 -15.21875 C 8.078125 -15.257812 8.128906 -15.28125 8.203125 -15.28125 C 8.285156 -15.28125 8.335938 -15.257812 8.359375 -15.21875 L 14.015625 -3.28125 C 14.554688 -2.101562 15.019531 -1.304688 15.40625 -0.890625 C 15.789062 -0.484375 16.25 -0.28125 16.78125 -0.28125 Z M 5.1875 -7.078125 L 10.484375 -7.078125 L 7.6875 -13.015625 Z M 5.1875 -7.078125 "/></g></g></g><g fill="#ffffff" fill-opacity="1"><g transform="translate(179.257683, 214.79581)"><g/></g></g><g fill="#ffffff" fill-opacity="1"><g transform="translate(184.87093, 214.79581)"><g><path d="M 16.0625 -15 C 16.101562 -15 16.125 -14.953125 16.125 -14.859375 C 16.125 -14.765625 16.101562 -14.71875 16.0625 -14.71875 C 15.507812 -14.71875 15.035156 -14.570312 14.640625 -14.28125 C 14.242188 -13.988281 13.90625 -13.5 13.625 -12.8125 L 8.515625 -0.03125 C 8.503906 0.0390625 8.414062 0.078125 8.25 0.078125 C 8.125 0.078125 8.035156 0.0390625 7.984375 -0.03125 L 2.015625 -13.015625 C 1.742188 -13.628906 1.457031 -14.066406 1.15625 -14.328125 C 0.851562 -14.585938 0.457031 -14.71875 -0.03125 -14.71875 C -0.0703125 -14.71875 -0.09375 -14.765625 -0.09375 -14.859375 C -0.09375 -14.953125 -0.0703125 -15 -0.03125 -15 L 0.890625 -14.96875 C 1.335938 -14.9375 1.695312 -14.921875 1.96875 -14.921875 C 2.601562 -14.921875 3.289062 -14.9375 4.03125 -14.96875 L 5.015625 -15 C 5.066406 -15 5.09375 -14.953125 5.09375 -14.859375 C 5.09375 -14.765625 5.066406 -14.71875 5.015625 -14.71875 C 4.023438 -14.71875 3.53125 -14.4375 3.53125 -13.875 C 3.53125 -13.675781 3.601562 -13.421875 3.75 -13.109375 L 8.765625 -2.109375 L 13.078125 -12.9375 C 13.203125 -13.269531 13.265625 -13.535156 13.265625 -13.734375 C 13.265625 -14.066406 13.113281 -14.3125 12.8125 -14.46875 C 12.507812 -14.632812 12.039062 -14.71875 11.40625 -14.71875 C 11.351562 -14.71875 11.328125 -14.765625 11.328125 -14.859375 C 11.328125 -14.953125 11.351562 -15 11.40625 -15 L 12.4375 -14.96875 C 12.976562 -14.9375 13.472656 -14.921875 13.921875 -14.921875 C 14.253906 -14.921875 14.628906 -14.9375 15.046875 -14.96875 Z M 16.0625 -15 "/></g></g></g><g fill="#ffffff" fill-opacity="1"><g transform="translate(200.847098, 214.79581)"><g/></g></g><g fill="#ffffff" fill-opacity="1"><g transform="translate(206.460344, 214.79581)"><g><path d="M 11.40625 -3.578125 C 11.40625 -3.609375 11.4375 -3.625 11.5 -3.625 C 11.539062 -3.625 11.582031 -3.613281 11.625 -3.59375 C 11.664062 -3.582031 11.6875 -3.5625 11.6875 -3.53125 C 11.539062 -2.519531 11.46875 -1.460938 11.46875 -0.359375 C 11.46875 -0.234375 11.4375 -0.140625 11.375 -0.078125 C 11.320312 -0.0234375 11.226562 0 11.09375 0 L 1.03125 0 C 1 0 0.984375 -0.046875 0.984375 -0.140625 C 0.984375 -0.234375 1 -0.28125 1.03125 -0.28125 C 1.632812 -0.28125 2.078125 -0.320312 2.359375 -0.40625 C 2.640625 -0.488281 2.832031 -0.644531 2.9375 -0.875 C 3.039062 -1.101562 3.09375 -1.457031 3.09375 -1.9375 L 3.09375 -13.0625 C 3.09375 -13.539062 3.039062 -13.890625 2.9375 -14.109375 C 2.832031 -14.335938 2.640625 -14.492188 2.359375 -14.578125 C 2.078125 -14.671875 1.632812 -14.71875 1.03125 -14.71875 C 1 -14.71875 0.984375 -14.765625 0.984375 -14.859375 C 0.984375 -14.953125 1 -15 1.03125 -15 L 10.6875 -15 C 10.820312 -15 10.890625 -14.925781 10.890625 -14.78125 L 10.9375 -11.828125 C 10.9375 -11.785156 10.894531 -11.757812 10.8125 -11.75 C 10.738281 -11.738281 10.695312 -11.757812 10.6875 -11.8125 C 10.632812 -12.65625 10.375 -13.3125 9.90625 -13.78125 C 9.445312 -14.257812 8.832031 -14.5 8.0625 -14.5 L 6.59375 -14.5 C 6.039062 -14.5 5.628906 -14.453125 5.359375 -14.359375 C 5.097656 -14.273438 4.914062 -14.125 4.8125 -13.90625 C 4.707031 -13.6875 4.65625 -13.363281 4.65625 -12.9375 L 4.65625 -8.0625 L 7.578125 -8.0625 C 8.347656 -8.0625 8.894531 -8.1875 9.21875 -8.4375 C 9.550781 -8.695312 9.71875 -9.132812 9.71875 -9.75 C 9.71875 -9.78125 9.765625 -9.796875 9.859375 -9.796875 C 9.960938 -9.796875 10.015625 -9.78125 10.015625 -9.75 L 9.984375 -7.796875 C 9.984375 -7.335938 9.992188 -6.988281 10.015625 -6.75 L 10.03125 -5.59375 C 10.03125 -5.5625 9.984375 -5.546875 9.890625 -5.546875 C 9.796875 -5.546875 9.75 -5.5625 9.75 -5.59375 C 9.75 -6.289062 9.578125 -6.789062 9.234375 -7.09375 C 8.890625 -7.40625 8.316406 -7.5625 7.515625 -7.5625 L 4.65625 -7.5625 L 4.65625 -2.046875 C 4.65625 -1.597656 4.703125 -1.269531 4.796875 -1.0625 C 4.890625 -0.851562 5.066406 -0.707031 5.328125 -0.625 C 5.585938 -0.539062 5.988281 -0.5 6.53125 -0.5 L 8.453125 -0.5 C 9.210938 -0.5 9.847656 -0.769531 10.359375 -1.3125 C 10.878906 -1.863281 11.226562 -2.617188 11.40625 -3.578125 Z M 11.40625 -3.578125 "/></g></g></g><g fill="#ffffff" fill-opacity="1"><g transform="translate(219.342031, 214.79581)"><g/></g></g><g fill="#ffffff" fill-opacity="1"><g transform="translate(224.955277, 214.79581)"><g><path d="M 4.4375 -2.046875 C 4.4375 -1.578125 4.484375 -1.238281 4.578125 -1.03125 C 4.679688 -0.820312 4.859375 -0.679688 5.109375 -0.609375 C 5.367188 -0.535156 5.785156 -0.5 6.359375 -0.5 L 8.96875 -0.5 C 9.882812 -0.5 10.613281 -0.78125 11.15625 -1.34375 C 11.695312 -1.90625 12.054688 -2.679688 12.234375 -3.671875 C 12.234375 -3.722656 12.273438 -3.742188 12.359375 -3.734375 C 12.453125 -3.722656 12.5 -3.691406 12.5 -3.640625 C 12.351562 -2.316406 12.28125 -1.222656 12.28125 -0.359375 C 12.28125 -0.234375 12.253906 -0.140625 12.203125 -0.078125 C 12.160156 -0.0234375 12.066406 0 11.921875 0 L 0.84375 0 C 0.8125 0 0.796875 -0.046875 0.796875 -0.140625 C 0.796875 -0.234375 0.8125 -0.28125 0.84375 -0.28125 C 1.445312 -0.28125 1.890625 -0.320312 2.171875 -0.40625 C 2.453125 -0.488281 2.640625 -0.644531 2.734375 -0.875 C 2.828125 -1.101562 2.875 -1.457031 2.875 -1.9375 L 2.875 -13.0625 C 2.875 -13.539062 2.828125 -13.890625 2.734375 -14.109375 C 2.640625 -14.335938 2.453125 -14.492188 2.171875 -14.578125 C 1.890625 -14.671875 1.445312 -14.71875 0.84375 -14.71875 C 0.8125 -14.71875 0.796875 -14.765625 0.796875 -14.859375 C 0.796875 -14.953125 0.8125 -15 0.84375 -15 L 2.015625 -14.96875 C 2.691406 -14.9375 3.234375 -14.921875 3.640625 -14.921875 C 4.085938 -14.921875 4.648438 -14.9375 5.328125 -14.96875 L 6.484375 -15 C 6.523438 -15 6.546875 -14.953125 6.546875 -14.859375 C 6.546875 -14.765625 6.523438 -14.71875 6.484375 -14.71875 C 5.890625 -14.71875 5.453125 -14.671875 5.171875 -14.578125 C 4.890625 -14.492188 4.695312 -14.332031 4.59375 -14.09375 C 4.488281 -13.863281 4.4375 -13.507812 4.4375 -13.03125 Z M 4.4375 -2.046875 "/></g></g></g><g fill="#ffffff" fill-opacity="1"><g transform="translate(237.741016, 214.79581)"><g/></g></g><g fill="#ffffff" fill-opacity="1"><g transform="translate(243.354263, 214.79581)"><g><path d="M 3.484375 -12.1875 C 3.484375 -11.5625 3.632812 -11.015625 3.9375 -10.546875 C 4.238281 -10.085938 4.609375 -9.703125 5.046875 -9.390625 C 5.492188 -9.078125 6.097656 -8.691406 6.859375 -8.234375 C 7.710938 -7.722656 8.363281 -7.296875 8.8125 -6.953125 C 9.269531 -6.617188 9.660156 -6.191406 9.984375 -5.671875 C 10.316406 -5.148438 10.484375 -4.53125 10.484375 -3.8125 C 10.484375 -3.039062 10.289062 -2.34375 9.90625 -1.71875 C 9.53125 -1.101562 8.96875 -0.613281 8.21875 -0.25 C 7.476562 0.101562 6.585938 0.28125 5.546875 0.28125 C 4.316406 0.28125 3.1875 0.00390625 2.15625 -0.546875 C 2.082031 -0.597656 2.03125 -0.65625 2 -0.71875 C 1.976562 -0.78125 1.957031 -0.878906 1.9375 -1.015625 L 1.625 -4.265625 C 1.613281 -4.335938 1.648438 -4.378906 1.734375 -4.390625 C 1.828125 -4.410156 1.878906 -4.382812 1.890625 -4.3125 C 2.148438 -3.164062 2.628906 -2.175781 3.328125 -1.34375 C 4.023438 -0.507812 4.945312 -0.09375 6.09375 -0.09375 C 6.894531 -0.09375 7.570312 -0.3125 8.125 -0.75 C 8.675781 -1.195312 8.953125 -1.898438 8.953125 -2.859375 C 8.953125 -3.578125 8.789062 -4.195312 8.46875 -4.71875 C 8.144531 -5.25 7.753906 -5.6875 7.296875 -6.03125 C 6.847656 -6.375 6.234375 -6.78125 5.453125 -7.25 C 4.679688 -7.707031 4.070312 -8.101562 3.625 -8.4375 C 3.1875 -8.78125 2.816406 -9.207031 2.515625 -9.71875 C 2.210938 -10.226562 2.0625 -10.828125 2.0625 -11.515625 C 2.0625 -12.316406 2.273438 -13 2.703125 -13.5625 C 3.128906 -14.132812 3.679688 -14.5625 4.359375 -14.84375 C 5.035156 -15.125 5.757812 -15.265625 6.53125 -15.265625 C 7.46875 -15.265625 8.40625 -15.070312 9.34375 -14.6875 C 9.582031 -14.601562 9.703125 -14.46875 9.703125 -14.28125 L 9.859375 -11.515625 C 9.859375 -11.453125 9.816406 -11.421875 9.734375 -11.421875 C 9.660156 -11.421875 9.613281 -11.453125 9.59375 -11.515625 C 9.46875 -12.347656 9.125 -13.117188 8.5625 -13.828125 C 8.007812 -14.546875 7.203125 -14.90625 6.140625 -14.90625 C 5.242188 -14.90625 4.578125 -14.644531 4.140625 -14.125 C 3.703125 -13.601562 3.484375 -12.957031 3.484375 -12.1875 Z M 3.484375 -12.1875 "/></g></g></g><g fill="#ffffff" fill-opacity="1"><g transform="translate(119.780213, 192.390662)"><g><path d="M 15.265625 -16.1875 C 17.691406 -16.007812 19.648438 -15.207031 21.140625 -13.78125 C 22.628906 -12.351562 23.375 -10.582031 23.375 -8.46875 C 23.375 -6.84375 22.972656 -5.367188 22.171875 -4.046875 C 21.367188 -2.722656 20.269531 -1.6875 18.875 -0.9375 C 17.488281 -0.1875 15.9375 0.1875 14.21875 0.1875 C 13.207031 0.1875 12.101562 0.140625 10.90625 0.046875 C 10.476562 0.015625 9.972656 -0.015625 9.390625 -0.046875 C 8.804688 -0.078125 8.160156 -0.09375 7.453125 -0.09375 L 4.328125 -0.046875 C 3.773438 -0.015625 2.992188 0 1.984375 0 C 1.921875 0 1.890625 -0.0859375 1.890625 -0.265625 C 1.890625 -0.453125 1.921875 -0.546875 1.984375 -0.546875 C 3.117188 -0.546875 3.960938 -0.628906 4.515625 -0.796875 C 5.066406 -0.972656 5.445312 -1.273438 5.65625 -1.703125 C 5.875 -2.128906 5.984375 -2.800781 5.984375 -3.71875 L 5.984375 -25.03125 C 5.984375 -25.945312 5.878906 -26.617188 5.671875 -27.046875 C 5.472656 -27.472656 5.101562 -27.769531 4.5625 -27.9375 C 4.03125 -28.113281 3.195312 -28.203125 2.0625 -28.203125 C 1.976562 -28.203125 1.9375 -28.289062 1.9375 -28.46875 C 1.9375 -28.65625 1.976562 -28.75 2.0625 -28.75 L 4.328125 -28.703125 C 5.609375 -28.640625 6.648438 -28.609375 7.453125 -28.609375 C 8.003906 -28.609375 8.515625 -28.625 8.984375 -28.65625 C 9.460938 -28.6875 9.875 -28.71875 10.21875 -28.75 C 11.164062 -28.84375 12.050781 -28.890625 12.875 -28.890625 C 15.457031 -28.890625 17.390625 -28.328125 18.671875 -27.203125 C 19.960938 -26.085938 20.609375 -24.625 20.609375 -22.8125 C 20.609375 -21.34375 20.128906 -20.03125 19.171875 -18.875 C 18.222656 -17.726562 16.921875 -16.832031 15.265625 -16.1875 Z M 11.90625 -28.203125 C 11.113281 -28.203125 10.515625 -28.128906 10.109375 -27.984375 C 9.710938 -27.847656 9.421875 -27.554688 9.234375 -27.109375 C 9.054688 -26.671875 8.96875 -25.945312 8.96875 -24.9375 L 8.96875 -16.1875 L 11.046875 -16.140625 C 13.273438 -16.140625 14.925781 -16.710938 16 -17.859375 C 17.082031 -19.015625 17.625 -20.546875 17.625 -22.453125 C 17.625 -24.171875 17.15625 -25.554688 16.21875 -26.609375 C 15.28125 -27.671875 13.84375 -28.203125 11.90625 -28.203125 Z M 13.53125 -0.640625 C 15.757812 -0.640625 17.414062 -1.210938 18.5 -2.359375 C 19.59375 -3.515625 20.140625 -5.164062 20.140625 -7.3125 C 20.140625 -9.644531 19.457031 -11.53125 18.09375 -12.96875 C 16.726562 -14.414062 14.851562 -15.15625 12.46875 -15.1875 C 11.488281 -15.207031 10.320312 -15.175781 8.96875 -15.09375 L 8.96875 -3.71875 C 8.96875 -2.925781 9.082031 -2.3125 9.3125 -1.875 C 9.539062 -1.445312 9.984375 -1.132812 10.640625 -0.9375 C 11.304688 -0.738281 12.269531 -0.640625 13.53125 -0.640625 Z M 13.53125 -0.640625 "/></g></g></g><g fill="#ffffff" fill-opacity="1"><g transform="translate(145.446047, 192.390662)"><g><path d="M 32.15625 -0.546875 C 32.28125 -0.546875 32.34375 -0.453125 32.34375 -0.265625 C 32.34375 -0.0859375 32.28125 0 32.15625 0 C 31.570312 0 30.664062 -0.03125 29.4375 -0.09375 C 28.207031 -0.15625 27.316406 -0.1875 26.765625 -0.1875 C 26.097656 -0.1875 25.242188 -0.15625 24.203125 -0.09375 C 23.210938 -0.03125 22.457031 0 21.9375 0 C 21.820312 0 21.765625 -0.0859375 21.765625 -0.265625 C 21.765625 -0.453125 21.820312 -0.546875 21.9375 -0.546875 C 23.070312 -0.546875 23.898438 -0.65625 24.421875 -0.875 C 24.941406 -1.09375 25.203125 -1.460938 25.203125 -1.984375 C 25.203125 -2.410156 25.003906 -3.066406 24.609375 -3.953125 L 20.515625 -12.65625 L 9.5625 -12.65625 L 6.671875 -5.84375 C 6.242188 -4.800781 6.03125 -3.957031 6.03125 -3.3125 C 6.03125 -2.363281 6.40625 -1.664062 7.15625 -1.21875 C 7.90625 -0.769531 9.03125 -0.546875 10.53125 -0.546875 C 10.6875 -0.546875 10.765625 -0.453125 10.765625 -0.265625 C 10.765625 -0.0859375 10.6875 0 10.53125 0 C 9.976562 0 9.179688 -0.03125 8.140625 -0.09375 C 6.972656 -0.15625 5.960938 -0.1875 5.109375 -0.1875 C 4.304688 -0.1875 3.382812 -0.15625 2.34375 -0.09375 C 1.425781 -0.03125 0.660156 0 0.046875 0 C -0.109375 0 -0.1875 -0.0859375 -0.1875 -0.265625 C -0.1875 -0.453125 -0.109375 -0.546875 0.046875 -0.546875 C 0.898438 -0.546875 1.625 -0.707031 2.21875 -1.03125 C 2.820312 -1.351562 3.390625 -1.921875 3.921875 -2.734375 C 4.460938 -3.546875 5.054688 -4.71875 5.703125 -6.25 L 15.40625 -29.15625 C 15.46875 -29.25 15.578125 -29.296875 15.734375 -29.296875 C 15.890625 -29.296875 15.984375 -29.25 16.015625 -29.15625 L 26.859375 -6.296875 C 27.898438 -4.023438 28.789062 -2.5 29.53125 -1.71875 C 30.269531 -0.9375 31.144531 -0.546875 32.15625 -0.546875 Z M 9.9375 -13.5625 L 20.109375 -13.5625 L 14.71875 -24.9375 Z M 9.9375 -13.5625 "/></g></g></g><g fill="#ffffff" fill-opacity="1"><g transform="translate(177.735332, 192.390662)"><g><path d="M 6.671875 -23.375 C 6.671875 -22.175781 6.960938 -21.128906 7.546875 -20.234375 C 8.128906 -19.347656 8.84375 -18.601562 9.6875 -18 C 10.53125 -17.40625 11.6875 -16.664062 13.15625 -15.78125 C 14.78125 -14.800781 16.03125 -13.988281 16.90625 -13.34375 C 17.78125 -12.695312 18.53125 -11.875 19.15625 -10.875 C 19.789062 -9.882812 20.109375 -8.695312 20.109375 -7.3125 C 20.109375 -5.84375 19.738281 -4.507812 19 -3.3125 C 18.257812 -2.113281 17.175781 -1.171875 15.75 -0.484375 C 14.320312 0.203125 12.613281 0.546875 10.625 0.546875 C 8.257812 0.546875 6.097656 0.0078125 4.140625 -1.0625 C 3.984375 -1.15625 3.878906 -1.257812 3.828125 -1.375 C 3.785156 -1.5 3.75 -1.6875 3.71875 -1.9375 L 3.125 -8.1875 C 3.09375 -8.3125 3.160156 -8.390625 3.328125 -8.421875 C 3.503906 -8.453125 3.609375 -8.40625 3.640625 -8.28125 C 4.128906 -6.070312 5.039062 -4.171875 6.375 -2.578125 C 7.707031 -0.984375 9.476562 -0.1875 11.6875 -0.1875 C 13.21875 -0.1875 14.507812 -0.609375 15.5625 -1.453125 C 16.625 -2.296875 17.15625 -3.632812 17.15625 -5.46875 C 17.15625 -6.851562 16.847656 -8.050781 16.234375 -9.0625 C 15.617188 -10.070312 14.875 -10.90625 14 -11.5625 C 13.132812 -12.226562 11.945312 -13.003906 10.4375 -13.890625 C 8.96875 -14.773438 7.8125 -15.539062 6.96875 -16.1875 C 6.125 -16.832031 5.410156 -17.644531 4.828125 -18.625 C 4.242188 -19.613281 3.953125 -20.765625 3.953125 -22.078125 C 3.953125 -23.609375 4.359375 -24.914062 5.171875 -26 C 5.984375 -27.09375 7.039062 -27.90625 8.34375 -28.4375 C 9.644531 -28.976562 11.035156 -29.25 12.515625 -29.25 C 14.316406 -29.25 16.109375 -28.882812 17.890625 -28.15625 C 18.347656 -28 18.578125 -27.738281 18.578125 -27.375 L 18.90625 -22.078125 C 18.90625 -21.953125 18.828125 -21.890625 18.671875 -21.890625 C 18.523438 -21.890625 18.4375 -21.953125 18.40625 -22.078125 C 18.15625 -23.671875 17.492188 -25.148438 16.421875 -26.515625 C 15.347656 -27.878906 13.800781 -28.5625 11.78125 -28.5625 C 10.0625 -28.5625 8.78125 -28.0625 7.9375 -27.0625 C 7.09375 -26.070312 6.671875 -24.84375 6.671875 -23.375 Z M 6.671875 -23.375 "/></g></g></g><g fill="#ffffff" fill-opacity="1"><g transform="translate(200.319434, 192.390662)"><g><path d="M 6.671875 -23.375 C 6.671875 -22.175781 6.960938 -21.128906 7.546875 -20.234375 C 8.128906 -19.347656 8.84375 -18.601562 9.6875 -18 C 10.53125 -17.40625 11.6875 -16.664062 13.15625 -15.78125 C 14.78125 -14.800781 16.03125 -13.988281 16.90625 -13.34375 C 17.78125 -12.695312 18.53125 -11.875 19.15625 -10.875 C 19.789062 -9.882812 20.109375 -8.695312 20.109375 -7.3125 C 20.109375 -5.84375 19.738281 -4.507812 19 -3.3125 C 18.257812 -2.113281 17.175781 -1.171875 15.75 -0.484375 C 14.320312 0.203125 12.613281 0.546875 10.625 0.546875 C 8.257812 0.546875 6.097656 0.0078125 4.140625 -1.0625 C 3.984375 -1.15625 3.878906 -1.257812 3.828125 -1.375 C 3.785156 -1.5 3.75 -1.6875 3.71875 -1.9375 L 3.125 -8.1875 C 3.09375 -8.3125 3.160156 -8.390625 3.328125 -8.421875 C 3.503906 -8.453125 3.609375 -8.40625 3.640625 -8.28125 C 4.128906 -6.070312 5.039062 -4.171875 6.375 -2.578125 C 7.707031 -0.984375 9.476562 -0.1875 11.6875 -0.1875 C 13.21875 -0.1875 14.507812 -0.609375 15.5625 -1.453125 C 16.625 -2.296875 17.15625 -3.632812 17.15625 -5.46875 C 17.15625 -6.851562 16.847656 -8.050781 16.234375 -9.0625 C 15.617188 -10.070312 14.875 -10.90625 14 -11.5625 C 13.132812 -12.226562 11.945312 -13.003906 10.4375 -13.890625 C 8.96875 -14.773438 7.8125 -15.539062 6.96875 -16.1875 C 6.125 -16.832031 5.410156 -17.644531 4.828125 -18.625 C 4.242188 -19.613281 3.953125 -20.765625 3.953125 -22.078125 C 3.953125 -23.609375 4.359375 -24.914062 5.171875 -26 C 5.984375 -27.09375 7.039062 -27.90625 8.34375 -28.4375 C 9.644531 -28.976562 11.035156 -29.25 12.515625 -29.25 C 14.316406 -29.25 16.109375 -28.882812 17.890625 -28.15625 C 18.347656 -28 18.578125 -27.738281 18.578125 -27.375 L 18.90625 -22.078125 C 18.90625 -21.953125 18.828125 -21.890625 18.671875 -21.890625 C 18.523438 -21.890625 18.4375 -21.953125 18.40625 -22.078125 C 18.15625 -23.671875 17.492188 -25.148438 16.421875 -26.515625 C 15.347656 -27.878906 13.800781 -28.5625 11.78125 -28.5625 C 10.0625 -28.5625 8.78125 -28.0625 7.9375 -27.0625 C 7.09375 -26.070312 6.671875 -24.84375 6.671875 -23.375 Z M 6.671875 -23.375 "/></g></g></g><g fill="#ffffff" fill-opacity="1"><g transform="translate(222.903535, 192.390662)"><g><path d="M 32.15625 -0.546875 C 32.28125 -0.546875 32.34375 -0.453125 32.34375 -0.265625 C 32.34375 -0.0859375 32.28125 0 32.15625 0 C 31.570312 0 30.664062 -0.03125 29.4375 -0.09375 C 28.207031 -0.15625 27.316406 -0.1875 26.765625 -0.1875 C 26.097656 -0.1875 25.242188 -0.15625 24.203125 -0.09375 C 23.210938 -0.03125 22.457031 0 21.9375 0 C 21.820312 0 21.765625 -0.0859375 21.765625 -0.265625 C 21.765625 -0.453125 21.820312 -0.546875 21.9375 -0.546875 C 23.070312 -0.546875 23.898438 -0.65625 24.421875 -0.875 C 24.941406 -1.09375 25.203125 -1.460938 25.203125 -1.984375 C 25.203125 -2.410156 25.003906 -3.066406 24.609375 -3.953125 L 20.515625 -12.65625 L 9.5625 -12.65625 L 6.671875 -5.84375 C 6.242188 -4.800781 6.03125 -3.957031 6.03125 -3.3125 C 6.03125 -2.363281 6.40625 -1.664062 7.15625 -1.21875 C 7.90625 -0.769531 9.03125 -0.546875 10.53125 -0.546875 C 10.6875 -0.546875 10.765625 -0.453125 10.765625 -0.265625 C 10.765625 -0.0859375 10.6875 0 10.53125 0 C 9.976562 0 9.179688 -0.03125 8.140625 -0.09375 C 6.972656 -0.15625 5.960938 -0.1875 5.109375 -0.1875 C 4.304688 -0.1875 3.382812 -0.15625 2.34375 -0.09375 C 1.425781 -0.03125 0.660156 0 0.046875 0 C -0.109375 0 -0.1875 -0.0859375 -0.1875 -0.265625 C -0.1875 -0.453125 -0.109375 -0.546875 0.046875 -0.546875 C 0.898438 -0.546875 1.625 -0.707031 2.21875 -1.03125 C 2.820312 -1.351562 3.390625 -1.921875 3.921875 -2.734375 C 4.460938 -3.546875 5.054688 -4.71875 5.703125 -6.25 L 15.40625 -29.15625 C 15.46875 -29.25 15.578125 -29.296875 15.734375 -29.296875 C 15.890625 -29.296875 15.984375 -29.25 16.015625 -29.15625 L 26.859375 -6.296875 C 27.898438 -4.023438 28.789062 -2.5 29.53125 -1.71875 C 30.269531 -0.9375 31.144531 -0.546875 32.15625 -0.546875 Z M 9.9375 -13.5625 L 20.109375 -13.5625 L 14.71875 -24.9375 Z M 9.9375 -13.5625 "/></g></g></g><path stroke-linecap="butt" transform="matrix(0.75, 0, 0, 0.75, 171.774192, 157.240595)" fill="none" stroke-linejoin="miter" d="M -0.00100656 0.502123 L 73.644832 0.502123 " stroke="#ffffff" stroke-width="1" stroke-opacity="1" stroke-miterlimit="4"/><g transform="matrix(1, 0, 0, 1, 113, 190)"><g clip-path="url(#f06e31001f)"><g clip-path="url(#3148f12e99)"><g fill="#ffffff" fill-opacity="1"><g transform="translate(0.0895161, 5.966887)"><g><path d="M 3.59375 -1.796875 C 3.59375 -1.222656 3.445312 -0.769531 3.15625 -0.4375 C 2.863281 -0.113281 2.460938 0.046875 1.953125 0.046875 C 1.421875 0.046875 1.015625 -0.113281 0.734375 -0.4375 C 0.453125 -0.757812 0.3125 -1.210938 0.3125 -1.796875 C 0.3125 -2.378906 0.453125 -2.828125 0.734375 -3.140625 C 1.023438 -3.460938 1.429688 -3.625 1.953125 -3.625 C 2.460938 -3.625 2.863281 -3.460938 3.15625 -3.140625 C 3.445312 -2.816406 3.59375 -2.367188 3.59375 -1.796875 Z M 0.75 -1.796875 C 0.75 -1.304688 0.847656 -0.9375 1.046875 -0.6875 C 1.253906 -0.4375 1.554688 -0.3125 1.953125 -0.3125 C 2.347656 -0.3125 2.644531 -0.4375 2.84375 -0.6875 C 3.050781 -0.9375 3.15625 -1.304688 3.15625 -1.796875 C 3.15625 -2.273438 3.050781 -2.632812 2.84375 -2.875 C 2.644531 -3.125 2.347656 -3.25 1.953125 -3.25 C 1.554688 -3.25 1.253906 -3.125 1.046875 -2.875 C 0.847656 -2.625 0.75 -2.265625 0.75 -1.796875 Z M 0.75 -1.796875 "/></g></g></g></g></g></g><g transform="matrix(1, 0, 0, 1, 258, 190)"><g clip-path="url(#9f95e3cc6f)"><g fill="#ffffff" fill-opacity="1"><g transform="translate(0.221882, 5.966887)"><g><path d="M 3.59375 -1.796875 C 3.59375 -1.222656 3.445312 -0.769531 3.15625 -0.4375 C 2.863281 -0.113281 2.460938 0.046875 1.953125 0.046875 C 1.421875 0.046875 1.015625 -0.113281 0.734375 -0.4375 C 0.453125 -0.757812 0.3125 -1.210938 0.3125 -1.796875 C 0.3125 -2.378906 0.453125 -2.828125 0.734375 -3.140625 C 1.023438 -3.460938 1.429688 -3.625 1.953125 -3.625 C 2.460938 -3.625 2.863281 -3.460938 3.15625 -3.140625 C 3.445312 -2.816406 3.59375 -2.367188 3.59375 -1.796875 Z M 0.75 -1.796875 C 0.75 -1.304688 0.847656 -0.9375 1.046875 -0.6875 C 1.253906 -0.4375 1.554688 -0.3125 1.953125 -0.3125 C 2.347656 -0.3125 2.644531 -0.4375 2.84375 -0.6875 C 3.050781 -0.9375 3.15625 -1.304688 3.15625 -1.796875 C 3.15625 -2.273438 3.050781 -2.632812 2.84375 -2.875 C 2.644531 -3.125 2.347656 -3.25 1.953125 -3.25 C 1.554688 -3.25 1.253906 -3.125 1.046875 -2.875 C 0.847656 -2.625 0.75 -2.265625 0.75 -1.796875 Z M 0.75 -1.796875 "/></g></g></g></g></g></svg>